<?xml version="1.0" encoding="UTF-8"?>
<svg version="1.1" viewBox="0 0 1342 850" width="1342" height="850" xmlns="http://www.w3.org/2000/svg">
  <path transform="translate(0)" d="m0 0h1342v647l-72 22-523 159-73 22-10-1-664-202zm75 75v502l10 4 113 37 64 21 31 10 142 43 227 69 7 2 8-1 65-20 224-68 76-23 16-5 70-23 107-35 31-10 1-1v-502z" fill="#fff"/>
  <path transform="translate(1035,193)" d="m0 0h11l23 2 20 4 16 5 17 7 18 10 11 8 11 9 14 14 8 10-5 5-12 10-17 13-16 13-11 8-5-5-7-8-13-10-15-8-16-5-12-2h-28l-20 4-16 7-10 6-11 9-7 7-9 13-8 16-5 19-1 8v27l3 17 6 17 8 14 11 13 9 8 14 9 14 6 16 4 7 1h27l20-3 16-5 16-8 11-8 3-3 1-37h-59v-57h127v132l-12 13-11 11-15 11-15 9-21 10-21 7-23 5-19 2h-26l-24-3-17-4-20-7-21-11-17-12-12-11-5-4-7-8-12-15-9-15-10-21-6-20-4-20-2-27 1-26 4-25 6-20 7-17 8-15 10-14 9-11 16-16 13-10 16-10 16-8 24-8 20-4z" fill="#fff"/>
  <path transform="translate(667,194)" d="m0 0h31l22 3 20 5 21 8 19 10 17 12 13 12 9 9 7 9-5 5-12 10-17 13-16 13-11 8-5-5-7-8-13-10-15-8-16-5-12-2h-28l-20 4-16 7-12 7-13 12-8 9-9 15-6 16-3 14-1 11v15l3 21 5 15 7 14 10 13 9 9 14 10 15 7 14 4 12 2h25l20-4 15-6 10-6 10-8 12-12 2-3 4 2 14 11 16 13 28 22-6 9-14 15-13 11-15 10-17 9-21 8-20 5-25 3h-26l-24-3-21-5-20-8-19-10-14-10-15-13-8-8-11-14-10-15-8-15-8-22-4-16-3-21-1-25 1-19 4-25 6-20 7-17 10-18 9-12 11-13 10-10 14-11 15-10 16-8 15-6 18-5 17-3z" fill="#fff"/>
  <path transform="translate(138,200)" d="m0 0h84l18 48 18 49 40 108 18 48 11-29 21-57 60-162 2-5h84l-1 6-18 47-19 50-18 47-21 55-19 50-36 94-1 1h-90l-5-12-17-44-19-50-42-110-19-50-18-47-13-34z" fill="#fff"/>
  <path transform="translate(523,627)" d="m0 0h297l-4 3-24 13-23 13-24 13-23 13-24 13-23 13-6 1-24-13-23-13-24-13-74-41z" fill="#fff"/>
</svg>
